# xmcd
#
# Track frame offsets:
#	150
#	12357
#	23673
#	41574
#	54546
#	66783
#	83602
#	94957
#	107769
#	120263
#	132614
#	145445
#
# Disc length: 2164 seconds
#
# Revision: 1
# Processed by: cddbd v1.5.2PL0 Copyright (c) Steve Scherf et al.
# Submitted via: audiograbber 1.83.01
#
DISCID=9f08720c
DTITLE=J J Justin - I Need You (Golden Classics)
DYEAR=2010
DGENRE=Country
TTITLE0=Streets Of Baltimore
TTITLE1=Take Good Care Of Her
TTITLE2=California Blue
TTITLE3=Send Me The Pillow You Dream On
TTITLE4=Under Your Spell Again
TTITLE5=I Need You
TTITLE6=Blue Eyes Crying In The Rain
TTITLE7=When The Grass Grows Over Me
TTITLE8=My Elusive Dreams
TTITLE9=You Better Move On
TTITLE10=Crystal Chandeliers
TTITLE11=Don't Forget To Remember
EXTD=
EXTT0=
EXTT1=
EXTT2=
EXTT3=
EXTT4=
EXTT5=
EXTT6=
EXTT7=
EXTT8=
EXTT9=
EXTT10=
EXTT11=
PLAYORDER=
